M48
;DRILL file {KiCad 4.0.7-e2-6376~58~ubuntu16.04.1} date Thu Nov  2 10:24:40 2017
;FORMAT={-:-/ absolute / metric / decimal}
FMAT,2
METRIC,TZ
T1C0.800
T2C0.900
T3C1.000
T4C1.016
T5C3.200
T6C3.500
%
G90
G05
M71
T1
X115.661Y-129.718
X118.161Y-129.718
X136.195Y-129.718
X138.695Y-129.718
T2
X110.46Y-142.
X113.Y-142.
X140.322Y-104.064
X140.322Y-106.604
X140.322Y-109.144
T3
X124.384Y-129.718
X126.924Y-129.718
X129.464Y-129.718
T4
X106.985Y-106.921
X106.985Y-109.462
X106.985Y-112.001
X106.985Y-114.541
X106.985Y-117.081
X109.525Y-106.921
X109.525Y-109.462
X109.525Y-112.001
X109.525Y-114.541
X109.525Y-117.081
X121.92Y-105.16
X121.92Y-107.7
X124.46Y-105.16
X124.46Y-107.7
X126.053Y-121.904
X127.Y-105.16
X127.Y-107.7
X129.54Y-105.16
X129.54Y-107.7
X132.08Y-105.16
X132.08Y-107.7
X132.258Y-112.89
X139.624Y-124.956
T5
X102.5Y-102.5
X102.5Y-135.7
X115.6Y-148.
X138.Y-148.
X151.1Y-102.5
T6
X126.924Y-146.378
T0
M30
