G04 #@! TF.FileFunction,Soldermask,Top*
%FSLAX46Y46*%
G04 Gerber Fmt 4.6, Leading zero omitted, Abs format (unit mm)*
G04 Created by KiCad (PCBNEW 4.0.7-e2-6376~58~ubuntu16.04.1) date Thu Nov  2 10:40:48 2017*
%MOMM*%
%LPD*%
G01*
G04 APERTURE LIST*
%ADD10C,0.100000*%
%ADD11C,5.400000*%
%ADD12R,1.900000X1.650000*%
%ADD13R,2.000000X2.000000*%
%ADD14C,2.000000*%
%ADD15R,1.620000X1.310000*%
%ADD16R,1.310000X1.620000*%
%ADD17R,2.127200X2.127200*%
%ADD18O,2.127200X2.127200*%
%ADD19C,2.400000*%
%ADD20R,1.700000X1.900000*%
%ADD21R,1.900000X1.700000*%
%ADD22R,2.180000X1.120000*%
%ADD23O,3.900000X3.900000*%
%ADD24R,2.200000X2.200000*%
%ADD25O,2.200000X2.200000*%
G04 APERTURE END LIST*
D10*
D11*
X102500000Y-135700000D03*
X115600000Y-148000000D03*
X151100000Y-102500000D03*
X138000000Y-148000000D03*
D12*
X118161000Y-137592000D03*
X115661000Y-137592000D03*
D13*
X118161000Y-129718000D03*
D14*
X115661000Y-129718000D03*
D12*
X136322000Y-137084000D03*
X138822000Y-137084000D03*
D13*
X136195000Y-129718000D03*
D14*
X138695000Y-129718000D03*
D15*
X130289500Y-121923500D03*
X130289500Y-125193500D03*
D16*
X118399000Y-134544000D03*
X115129000Y-134544000D03*
X135957000Y-134290000D03*
X139227000Y-134290000D03*
D15*
X118796000Y-122463000D03*
X118796000Y-119193000D03*
X118796000Y-116557500D03*
X118796000Y-113287500D03*
X115494000Y-122463000D03*
X115494000Y-119193000D03*
X115494000Y-116557500D03*
X115494000Y-113287500D03*
D17*
X121920000Y-105160000D03*
D18*
X121920000Y-107700000D03*
X124460000Y-105160000D03*
X124460000Y-107700000D03*
X127000000Y-105160000D03*
X127000000Y-107700000D03*
X129540000Y-105160000D03*
X129540000Y-107700000D03*
X132080000Y-105160000D03*
X132080000Y-107700000D03*
D19*
X110460000Y-142000000D03*
X113000000Y-142000000D03*
D17*
X109525000Y-106921500D03*
D18*
X106985000Y-106921500D03*
X109525000Y-109461500D03*
X106985000Y-109461500D03*
X109525000Y-112001500D03*
X106985000Y-112001500D03*
X109525000Y-114541500D03*
X106985000Y-114541500D03*
X109525000Y-117081500D03*
X106985000Y-117081500D03*
D19*
X140322500Y-104064000D03*
X140322500Y-106604000D03*
X140322500Y-109144000D03*
D20*
X136195000Y-124972000D03*
X136195000Y-122272000D03*
X133337500Y-124972000D03*
X133337500Y-122272000D03*
D21*
X125654000Y-115621000D03*
X128354000Y-115621000D03*
X125701000Y-118288000D03*
X128401000Y-118288000D03*
D22*
X136938000Y-118732500D03*
X136938000Y-117462500D03*
X136938000Y-116192500D03*
X136938000Y-114922500D03*
X132258000Y-114922500D03*
X132258000Y-116192500D03*
X132258000Y-117462500D03*
X132258000Y-118732500D03*
D11*
X102500000Y-102500000D03*
D23*
X126924000Y-146378000D03*
D24*
X124384000Y-129718000D03*
D25*
X126924000Y-129718000D03*
X129464000Y-129718000D03*
M02*
