  0
SECTION
  2
HEADER
  9
$ANGBASE
  50
0.0
  9
$ANGDIR
  70
  1
  9
$MEASUREMENT
  70
0
  0
ENDSEC
  0
SECTION
  2
TABLES
  0
TABLE
  2
LTYPE
  70
4
  0
LTYPE
  5
40F
  2
CONTINUOUS
  70
0
  3
Solid line
  72
65
  73
0
  40
0.0
  0
LTYPE
  5
410
  2
DASHDOT
 70
0
  3
Dash Dot ____ _ ____ _
 72
65
 73
4
 40
2.0
 49
1.25
 49
-0.25
 49
0.25
 49
-0.25
  0
LTYPE
  5
411
  2
DASHED
 70
0
  3
Dashed __ __ __ __ __
 72
65
 73
2
 40
0.75
 49
0.5
 49
-0.25
  0
LTYPE
  5
43B
  2
DOTTED
 70
0
  3
Dotted .  .  .  .
 72
65
 73
2
 40
0.2
 49
0.0
 49
-0.2
  0
ENDTAB
  0
TABLE
  2
STYLE
  70
4
  0
STYLE
  2
KICAD
  70
0
  40
0
  41
1
  42
1
  50
0
  71
0
  3
isocp.shx
  0
STYLE
  2
KICADB
  70
0
  40
0
  41
1
  42
1
  50
0
  71
0
  3
isocp.shx
  0
STYLE
  2
KICADI
  70
0
  40
0
  41
1
  42
1
  50
15
  71
0
  3
isocp.shx
  0
STYLE
  2
KICADBI
  70
0
  40
0
  41
1
  42
1
  50
15
  71
0
  3
isocp.shx
  0
ENDTAB
  0
TABLE
  2
LAYER
  70
30
  0
LAYER
  2
BLACK
  70
0
  62
7
  6
CONTINUOUS
  0
LAYER
  2
GRAY1
  70
0
  62
251
  6
CONTINUOUS
  0
LAYER
  2
GRAY2
  70
0
  62
8
  6
CONTINUOUS
  0
LAYER
  2
GRAY3
  70
0
  62
9
  6
CONTINUOUS
  0
LAYER
  2
WHITE
  70
0
  62
7
  6
CONTINUOUS
  0
LAYER
  2
LYELLOW
  70
0
  62
51
  6
CONTINUOUS
  0
LAYER
  2
BLUE1
  70
0
  62
178
  6
CONTINUOUS
  0
LAYER
  2
GREEN1
  70
0
  62
98
  6
CONTINUOUS
  0
LAYER
  2
CYAN1
  70
0
  62
138
  6
CONTINUOUS
  0
LAYER
  2
RED1
  70
0
  62
18
  6
CONTINUOUS
  0
LAYER
  2
MAGENTA1
  70
0
  62
228
  6
CONTINUOUS
  0
LAYER
  2
BROWN1
  70
0
  62
58
  6
CONTINUOUS
  0
LAYER
  2
BLUE2
  70
0
  62
5
  6
CONTINUOUS
  0
LAYER
  2
GREEN2
  70
0
  62
3
  6
CONTINUOUS
  0
LAYER
  2
CYAN2
  70
0
  62
4
  6
CONTINUOUS
  0
LAYER
  2
RED2
  70
0
  62
1
  6
CONTINUOUS
  0
LAYER
  2
MAGENTA2
  70
0
  62
6
  6
CONTINUOUS
  0
LAYER
  2
BROWN2
  70
0
  62
54
  6
CONTINUOUS
  0
LAYER
  2
BLUE3
  70
0
  62
171
  6
CONTINUOUS
  0
LAYER
  2
GREEN3
  70
0
  62
91
  6
CONTINUOUS
  0
LAYER
  2
CYAN3
  70
0
  62
131
  6
CONTINUOUS
  0
LAYER
  2
RED3
  70
0
  62
11
  6
CONTINUOUS
  0
LAYER
  2
MAGENTA3
  70
0
  62
221
  6
CONTINUOUS
  0
LAYER
  2
YELLOW3
  70
0
  62
2
  6
CONTINUOUS
  0
LAYER
  2
BLUE4
  70
0
  62
5
  6
CONTINUOUS
  0
LAYER
  2
GREEN4
  70
0
  62
3
  6
CONTINUOUS
  0
LAYER
  2
CYAN4
  70
0
  62
4
  6
CONTINUOUS
  0
LAYER
  2
RED4
  70
0
  62
1
  6
CONTINUOUS
  0
LAYER
  2
MAGENTA4
  70
0
  62
6
  6
CONTINUOUS
  0
LAYER
  2
YELLOW4
  70
0
  62
2
  6
CONTINUOUS
  0
ENDTAB
  0
ENDSEC
  0
SECTION
  2
ENTITIES
0
LINE
8
BLACK
6
CONTINUOUS
10
116.411
20
-138.217
11
114.911
21
-138.217
0
LINE
8
BLACK
6
CONTINUOUS
10
114.911
20
-138.217
11
114.911
21
-136.967
0
LINE
8
BLACK
6
CONTINUOUS
10
114.911
20
-136.967
11
116.411
21
-136.967
0
LINE
8
BLACK
6
CONTINUOUS
10
116.411
20
-136.967
11
116.411
21
-138.217
0
LINE
8
BLACK
6
CONTINUOUS
10
118.911
20
-138.217
11
117.411
21
-138.217
0
LINE
8
BLACK
6
CONTINUOUS
10
117.411
20
-138.217
11
117.411
21
-136.967
0
LINE
8
BLACK
6
CONTINUOUS
10
117.411
20
-136.967
11
118.911
21
-136.967
0
LINE
8
BLACK
6
CONTINUOUS
10
118.911
20
-136.967
11
118.911
21
-138.217
0
LINE
8
BLACK
6
CONTINUOUS
10
137.072
20
-137.709
11
135.572
21
-137.709
0
LINE
8
BLACK
6
CONTINUOUS
10
135.572
20
-137.709
11
135.572
21
-136.459
0
LINE
8
BLACK
6
CONTINUOUS
10
135.572
20
-136.459
11
137.072
21
-136.459
0
LINE
8
BLACK
6
CONTINUOUS
10
137.072
20
-136.459
11
137.072
21
-137.709
0
LINE
8
BLACK
6
CONTINUOUS
10
139.572
20
-137.709
11
138.072
21
-137.709
0
LINE
8
BLACK
6
CONTINUOUS
10
138.072
20
-137.709
11
138.072
21
-136.459
0
LINE
8
BLACK
6
CONTINUOUS
10
138.072
20
-136.459
11
139.572
21
-136.459
0
LINE
8
BLACK
6
CONTINUOUS
10
139.572
20
-136.459
11
139.572
21
-137.709
0
LINE
8
BLACK
6
CONTINUOUS
10
118.854
20
-135.154
11
117.944
21
-135.154
0
LINE
8
BLACK
6
CONTINUOUS
10
117.944
20
-135.154
11
117.944
21
-133.934
0
LINE
8
BLACK
6
CONTINUOUS
10
117.944
20
-133.934
11
118.854
21
-133.934
0
LINE
8
BLACK
6
CONTINUOUS
10
118.854
20
-133.934
11
118.854
21
-135.154
0
LINE
8
BLACK
6
CONTINUOUS
10
115.584
20
-135.154
11
114.674
21
-135.154
0
LINE
8
BLACK
6
CONTINUOUS
10
114.674
20
-135.154
11
114.674
21
-133.934
0
LINE
8
BLACK
6
CONTINUOUS
10
114.674
20
-133.934
11
115.584
21
-133.934
0
LINE
8
BLACK
6
CONTINUOUS
10
115.584
20
-133.934
11
115.584
21
-135.154
0
LINE
8
BLACK
6
CONTINUOUS
10
136.412
20
-134.9
11
135.502
21
-134.9
0
LINE
8
BLACK
6
CONTINUOUS
10
135.502
20
-134.9
11
135.502
21
-133.68
0
LINE
8
BLACK
6
CONTINUOUS
10
135.502
20
-133.68
11
136.412
21
-133.68
0
LINE
8
BLACK
6
CONTINUOUS
10
136.412
20
-133.68
11
136.412
21
-134.9
0
LINE
8
BLACK
6
CONTINUOUS
10
139.682
20
-134.9
11
138.772
21
-134.9
0
LINE
8
BLACK
6
CONTINUOUS
10
138.772
20
-134.9
11
138.772
21
-133.68
0
LINE
8
BLACK
6
CONTINUOUS
10
138.772
20
-133.68
11
139.682
21
-133.68
0
LINE
8
BLACK
6
CONTINUOUS
10
139.682
20
-133.68
11
139.682
21
-134.9
0
LINE
8
BLACK
6
CONTINUOUS
10
136.845
20
-125.722
11
135.545
21
-125.722
0
LINE
8
BLACK
6
CONTINUOUS
10
135.545
20
-125.722
11
135.545
21
-124.222
0
LINE
8
BLACK
6
CONTINUOUS
10
135.545
20
-124.222
11
136.845
21
-124.222
0
LINE
8
BLACK
6
CONTINUOUS
10
136.845
20
-124.222
11
136.845
21
-125.722
0
LINE
8
BLACK
6
CONTINUOUS
10
133.987
20
-125.722
11
132.688
21
-125.722
0
LINE
8
BLACK
6
CONTINUOUS
10
132.688
20
-125.722
11
132.688
21
-124.222
0
LINE
8
BLACK
6
CONTINUOUS
10
132.688
20
-124.222
11
133.987
21
-124.222
0
LINE
8
BLACK
6
CONTINUOUS
10
133.987
20
-124.222
11
133.987
21
-125.722
0
LINE
8
BLACK
6
CONTINUOUS
10
130.899
20
-125.648
11
129.679
21
-125.648
0
LINE
8
BLACK
6
CONTINUOUS
10
129.679
20
-125.648
11
129.679
21
-124.738
0
LINE
8
BLACK
6
CONTINUOUS
10
129.679
20
-124.738
11
130.899
21
-124.738
0
LINE
8
BLACK
6
CONTINUOUS
10
130.899
20
-124.738
11
130.899
21
-125.648
0
LINE
8
BLACK
6
CONTINUOUS
10
136.845
20
-123.022
11
135.545
21
-123.022
0
LINE
8
BLACK
6
CONTINUOUS
10
135.545
20
-123.022
11
135.545
21
-121.522
0
LINE
8
BLACK
6
CONTINUOUS
10
135.545
20
-121.522
11
136.845
21
-121.522
0
LINE
8
BLACK
6
CONTINUOUS
10
136.845
20
-121.522
11
136.845
21
-123.022
0
LINE
8
BLACK
6
CONTINUOUS
10
133.987
20
-123.022
11
132.688
21
-123.022
0
LINE
8
BLACK
6
CONTINUOUS
10
132.688
20
-123.022
11
132.688
21
-121.522
0
LINE
8
BLACK
6
CONTINUOUS
10
132.688
20
-121.522
11
133.987
21
-121.522
0
LINE
8
BLACK
6
CONTINUOUS
10
133.987
20
-121.522
11
133.987
21
-123.022
0
LINE
8
BLACK
6
CONTINUOUS
10
116.104
20
-122.918
11
114.884
21
-122.918
0
LINE
8
BLACK
6
CONTINUOUS
10
114.884
20
-122.918
11
114.884
21
-122.008
0
LINE
8
BLACK
6
CONTINUOUS
10
114.884
20
-122.008
11
116.104
21
-122.008
0
LINE
8
BLACK
6
CONTINUOUS
10
116.104
20
-122.008
11
116.104
21
-122.918
0
LINE
8
BLACK
6
CONTINUOUS
10
119.406
20
-122.918
11
118.186
21
-122.918
0
LINE
8
BLACK
6
CONTINUOUS
10
118.186
20
-122.918
11
118.186
21
-122.008
0
LINE
8
BLACK
6
CONTINUOUS
10
118.186
20
-122.008
11
119.406
21
-122.008
0
LINE
8
BLACK
6
CONTINUOUS
10
119.406
20
-122.008
11
119.406
21
-122.918
0
LINE
8
BLACK
6
CONTINUOUS
10
130.899
20
-122.378
11
129.679
21
-122.378
0
LINE
8
BLACK
6
CONTINUOUS
10
129.679
20
-122.378
11
129.679
21
-121.468
0
LINE
8
BLACK
6
CONTINUOUS
10
129.679
20
-121.468
11
130.899
21
-121.468
0
LINE
8
BLACK
6
CONTINUOUS
10
130.899
20
-121.468
11
130.899
21
-122.378
0
LINE
8
BLACK
6
CONTINUOUS
10
116.104
20
-119.648
11
114.884
21
-119.648
0
LINE
8
BLACK
6
CONTINUOUS
10
114.884
20
-119.648
11
114.884
21
-118.738
0
LINE
8
BLACK
6
CONTINUOUS
10
114.884
20
-118.738
11
116.104
21
-118.738
0
LINE
8
BLACK
6
CONTINUOUS
10
116.104
20
-118.738
11
116.104
21
-119.648
0
LINE
8
BLACK
6
CONTINUOUS
10
119.406
20
-119.648
11
118.186
21
-119.648
0
LINE
8
BLACK
6
CONTINUOUS
10
118.186
20
-119.648
11
118.186
21
-118.738
0
LINE
8
BLACK
6
CONTINUOUS
10
118.186
20
-118.738
11
119.406
21
-118.738
0
LINE
8
BLACK
6
CONTINUOUS
10
119.406
20
-118.738
11
119.406
21
-119.648
0
LINE
8
BLACK
6
CONTINUOUS
10
137.828
20
-119.093
11
136.048
21
-119.093
0
LINE
8
BLACK
6
CONTINUOUS
10
136.048
20
-119.093
11
136.048
21
-118.372
0
LINE
8
BLACK
6
CONTINUOUS
10
136.048
20
-118.372
11
137.828
21
-118.372
0
LINE
8
BLACK
6
CONTINUOUS
10
137.828
20
-118.372
11
137.828
21
-119.093
0
LINE
8
BLACK
6
CONTINUOUS
10
133.148
20
-119.093
11
131.368
21
-119.093
0
LINE
8
BLACK
6
CONTINUOUS
10
131.368
20
-119.093
11
131.368
21
-118.372
0
LINE
8
BLACK
6
CONTINUOUS
10
131.368
20
-118.372
11
133.148
21
-118.372
0
LINE
8
BLACK
6
CONTINUOUS
10
133.148
20
-118.372
11
133.148
21
-119.093
0
LINE
8
BLACK
6
CONTINUOUS
10
126.451
20
-118.938
11
124.951
21
-118.938
0
LINE
8
BLACK
6
CONTINUOUS
10
124.951
20
-118.938
11
124.951
21
-117.638
0
LINE
8
BLACK
6
CONTINUOUS
10
124.951
20
-117.638
11
126.451
21
-117.638
0
LINE
8
BLACK
6
CONTINUOUS
10
126.451
20
-117.638
11
126.451
21
-118.938
0
LINE
8
BLACK
6
CONTINUOUS
10
129.151
20
-118.938
11
127.651
21
-118.938
0
LINE
8
BLACK
6
CONTINUOUS
10
127.651
20
-118.938
11
127.651
21
-117.638
0
LINE
8
BLACK
6
CONTINUOUS
10
127.651
20
-117.638
11
129.151
21
-117.638
0
LINE
8
BLACK
6
CONTINUOUS
10
129.151
20
-117.638
11
129.151
21
-118.938
0
LINE
8
BLACK
6
CONTINUOUS
10
137.828
20
-117.822
11
136.048
21
-117.822
0
LINE
8
BLACK
6
CONTINUOUS
10
136.048
20
-117.822
11
136.048
21
-117.102
0
LINE
8
BLACK
6
CONTINUOUS
10
136.048
20
-117.102
11
137.828
21
-117.102
0
LINE
8
BLACK
6
CONTINUOUS
10
137.828
20
-117.102
11
137.828
21
-117.822
0
LINE
8
BLACK
6
CONTINUOUS
10
133.148
20
-117.822
11
131.368
21
-117.822
0
LINE
8
BLACK
6
CONTINUOUS
10
131.368
20
-117.822
11
131.368
21
-117.102
0
LINE
8
BLACK
6
CONTINUOUS
10
131.368
20
-117.102
11
133.148
21
-117.102
0
LINE
8
BLACK
6
CONTINUOUS
10
133.148
20
-117.102
11
133.148
21
-117.822
0
LINE
8
BLACK
6
CONTINUOUS
10
116.104
20
-117.012
11
114.884
21
-117.012
0
LINE
8
BLACK
6
CONTINUOUS
10
114.884
20
-117.012
11
114.884
21
-116.102
0
LINE
8
BLACK
6
CONTINUOUS
10
114.884
20
-116.102
11
116.104
21
-116.102
0
LINE
8
BLACK
6
CONTINUOUS
10
116.104
20
-116.102
11
116.104
21
-117.012
0
LINE
8
BLACK
6
CONTINUOUS
10
119.406
20
-117.012
11
118.186
21
-117.012
0
LINE
8
BLACK
6
CONTINUOUS
10
118.186
20
-117.012
11
118.186
21
-116.102
0
LINE
8
BLACK
6
CONTINUOUS
10
118.186
20
-116.102
11
119.406
21
-116.102
0
LINE
8
BLACK
6
CONTINUOUS
10
119.406
20
-116.102
11
119.406
21
-117.012
0
LINE
8
BLACK
6
CONTINUOUS
10
137.828
20
-116.552
11
136.048
21
-116.552
0
LINE
8
BLACK
6
CONTINUOUS
10
136.048
20
-116.552
11
136.048
21
-115.832
0
LINE
8
BLACK
6
CONTINUOUS
10
136.048
20
-115.832
11
137.828
21
-115.832
0
LINE
8
BLACK
6
CONTINUOUS
10
137.828
20
-115.832
11
137.828
21
-116.552
0
LINE
8
BLACK
6
CONTINUOUS
10
133.148
20
-116.552
11
131.368
21
-116.552
0
LINE
8
BLACK
6
CONTINUOUS
10
131.368
20
-116.552
11
131.368
21
-115.832
0
LINE
8
BLACK
6
CONTINUOUS
10
131.368
20
-115.832
11
133.148
21
-115.832
0
LINE
8
BLACK
6
CONTINUOUS
10
133.148
20
-115.832
11
133.148
21
-116.552
0
LINE
8
BLACK
6
CONTINUOUS
10
126.404
20
-116.271
11
124.904
21
-116.271
0
LINE
8
BLACK
6
CONTINUOUS
10
124.904
20
-116.271
11
124.904
21
-114.971
0
LINE
8
BLACK
6
CONTINUOUS
10
124.904
20
-114.971
11
126.404
21
-114.971
0
LINE
8
BLACK
6
CONTINUOUS
10
126.404
20
-114.971
11
126.404
21
-116.271
0
LINE
8
BLACK
6
CONTINUOUS
10
129.104
20
-116.271
11
127.604
21
-116.271
0
LINE
8
BLACK
6
CONTINUOUS
10
127.604
20
-116.271
11
127.604
21
-114.971
0
LINE
8
BLACK
6
CONTINUOUS
10
127.604
20
-114.971
11
129.104
21
-114.971
0
LINE
8
BLACK
6
CONTINUOUS
10
129.104
20
-114.971
11
129.104
21
-116.271
0
LINE
8
BLACK
6
CONTINUOUS
10
137.828
20
-115.282
11
136.048
21
-115.282
0
LINE
8
BLACK
6
CONTINUOUS
10
136.048
20
-115.282
11
136.048
21
-114.562
0
LINE
8
BLACK
6
CONTINUOUS
10
136.048
20
-114.562
11
137.828
21
-114.562
0
LINE
8
BLACK
6
CONTINUOUS
10
137.828
20
-114.562
11
137.828
21
-115.282
0
LINE
8
BLACK
6
CONTINUOUS
10
133.148
20
-115.282
11
131.368
21
-115.282
0
LINE
8
BLACK
6
CONTINUOUS
10
131.368
20
-115.282
11
131.368
21
-114.562
0
LINE
8
BLACK
6
CONTINUOUS
10
131.368
20
-114.562
11
133.148
21
-114.562
0
LINE
8
BLACK
6
CONTINUOUS
10
133.148
20
-114.562
11
133.148
21
-115.282
0
LINE
8
BLACK
6
CONTINUOUS
10
116.104
20
-113.742
11
114.884
21
-113.742
0
LINE
8
BLACK
6
CONTINUOUS
10
114.884
20
-113.742
11
114.884
21
-112.832
0
LINE
8
BLACK
6
CONTINUOUS
10
114.884
20
-112.832
11
116.104
21
-112.832
0
LINE
8
BLACK
6
CONTINUOUS
10
116.104
20
-112.832
11
116.104
21
-113.742
0
LINE
8
BLACK
6
CONTINUOUS
10
119.406
20
-113.742
11
118.186
21
-113.742
0
LINE
8
BLACK
6
CONTINUOUS
10
118.186
20
-113.742
11
118.186
21
-112.832
0
LINE
8
BLACK
6
CONTINUOUS
10
118.186
20
-112.832
11
119.406
21
-112.832
0
LINE
8
BLACK
6
CONTINUOUS
10
119.406
20
-112.832
11
119.406
21
-113.742
  0
ENDSEC
  0
EOF
