  0
SECTION
  2
HEADER
  9
$ANGBASE
  50
0.0
  9
$ANGDIR
  70
  1
  9
$MEASUREMENT
  70
0
  0
ENDSEC
  0
SECTION
  2
TABLES
  0
TABLE
  2
LTYPE
  70
4
  0
LTYPE
  5
40F
  2
CONTINUOUS
  70
0
  3
Solid line
  72
65
  73
0
  40
0.0
  0
LTYPE
  5
410
  2
DASHDOT
 70
0
  3
Dash Dot ____ _ ____ _
 72
65
 73
4
 40
2.0
 49
1.25
 49
-0.25
 49
0.25
 49
-0.25
  0
LTYPE
  5
411
  2
DASHED
 70
0
  3
Dashed __ __ __ __ __
 72
65
 73
2
 40
0.75
 49
0.5
 49
-0.25
  0
LTYPE
  5
43B
  2
DOTTED
 70
0
  3
Dotted .  .  .  .
 72
65
 73
2
 40
0.2
 49
0.0
 49
-0.2
  0
ENDTAB
  0
TABLE
  2
STYLE
  70
4
  0
STYLE
  2
KICAD
  70
0
  40
0
  41
1
  42
1
  50
0
  71
0
  3
isocp.shx
  0
STYLE
  2
KICADB
  70
0
  40
0
  41
1
  42
1
  50
0
  71
0
  3
isocp.shx
  0
STYLE
  2
KICADI
  70
0
  40
0
  41
1
  42
1
  50
15
  71
0
  3
isocp.shx
  0
STYLE
  2
KICADBI
  70
0
  40
0
  41
1
  42
1
  50
15
  71
0
  3
isocp.shx
  0
ENDTAB
  0
TABLE
  2
LAYER
  70
30
  0
LAYER
  2
BLACK
  70
0
  62
7
  6
CONTINUOUS
  0
LAYER
  2
GRAY1
  70
0
  62
251
  6
CONTINUOUS
  0
LAYER
  2
GRAY2
  70
0
  62
8
  6
CONTINUOUS
  0
LAYER
  2
GRAY3
  70
0
  62
9
  6
CONTINUOUS
  0
LAYER
  2
WHITE
  70
0
  62
7
  6
CONTINUOUS
  0
LAYER
  2
LYELLOW
  70
0
  62
51
  6
CONTINUOUS
  0
LAYER
  2
BLUE1
  70
0
  62
178
  6
CONTINUOUS
  0
LAYER
  2
GREEN1
  70
0
  62
98
  6
CONTINUOUS
  0
LAYER
  2
CYAN1
  70
0
  62
138
  6
CONTINUOUS
  0
LAYER
  2
RED1
  70
0
  62
18
  6
CONTINUOUS
  0
LAYER
  2
MAGENTA1
  70
0
  62
228
  6
CONTINUOUS
  0
LAYER
  2
BROWN1
  70
0
  62
58
  6
CONTINUOUS
  0
LAYER
  2
BLUE2
  70
0
  62
5
  6
CONTINUOUS
  0
LAYER
  2
GREEN2
  70
0
  62
3
  6
CONTINUOUS
  0
LAYER
  2
CYAN2
  70
0
  62
4
  6
CONTINUOUS
  0
LAYER
  2
RED2
  70
0
  62
1
  6
CONTINUOUS
  0
LAYER
  2
MAGENTA2
  70
0
  62
6
  6
CONTINUOUS
  0
LAYER
  2
BROWN2
  70
0
  62
54
  6
CONTINUOUS
  0
LAYER
  2
BLUE3
  70
0
  62
171
  6
CONTINUOUS
  0
LAYER
  2
GREEN3
  70
0
  62
91
  6
CONTINUOUS
  0
LAYER
  2
CYAN3
  70
0
  62
131
  6
CONTINUOUS
  0
LAYER
  2
RED3
  70
0
  62
11
  6
CONTINUOUS
  0
LAYER
  2
MAGENTA3
  70
0
  62
221
  6
CONTINUOUS
  0
LAYER
  2
YELLOW3
  70
0
  62
2
  6
CONTINUOUS
  0
LAYER
  2
BLUE4
  70
0
  62
5
  6
CONTINUOUS
  0
LAYER
  2
GREEN4
  70
0
  62
3
  6
CONTINUOUS
  0
LAYER
  2
CYAN4
  70
0
  62
4
  6
CONTINUOUS
  0
LAYER
  2
RED4
  70
0
  62
1
  6
CONTINUOUS
  0
LAYER
  2
MAGENTA4
  70
0
  62
6
  6
CONTINUOUS
  0
LAYER
  2
YELLOW4
  70
0
  62
2
  6
CONTINUOUS
  0
ENDTAB
  0
ENDSEC
  0
SECTION
  2
ENTITIES
0
LINE
8
BLACK
6
CONTINUOUS
10
107.925
20
-142.441
11
106.425
21
-142.441
0
LINE
8
BLACK
6
CONTINUOUS
10
106.425
20
-142.441
11
106.425
21
-140.941
0
LINE
8
BLACK
6
CONTINUOUS
10
106.425
20
-140.941
11
107.925
21
-140.941
0
LINE
8
BLACK
6
CONTINUOUS
10
107.925
20
-140.941
11
107.925
21
-142.441
0
LINE
8
BLACK
6
CONTINUOUS
10
143.512
20
-141.994
11
142.213
21
-141.994
0
LINE
8
BLACK
6
CONTINUOUS
10
142.213
20
-141.994
11
142.213
21
-140.494
0
LINE
8
BLACK
6
CONTINUOUS
10
142.213
20
-140.494
11
143.512
21
-140.494
0
LINE
8
BLACK
6
CONTINUOUS
10
143.512
20
-140.494
11
143.512
21
-141.994
0
LINE
8
BLACK
6
CONTINUOUS
10
143.512
20
-139.294
11
142.213
21
-139.294
0
LINE
8
BLACK
6
CONTINUOUS
10
142.213
20
-139.294
11
142.213
21
-137.794
0
LINE
8
BLACK
6
CONTINUOUS
10
142.213
20
-137.794
11
143.512
21
-137.794
0
LINE
8
BLACK
6
CONTINUOUS
10
143.512
20
-137.794
11
143.512
21
-139.294
0
LINE
8
BLACK
6
CONTINUOUS
10
107.925
20
-138.941
11
106.425
21
-138.941
0
LINE
8
BLACK
6
CONTINUOUS
10
106.425
20
-138.941
11
106.425
21
-137.441
0
LINE
8
BLACK
6
CONTINUOUS
10
106.425
20
-137.441
11
107.925
21
-137.441
0
LINE
8
BLACK
6
CONTINUOUS
10
107.925
20
-137.441
11
107.925
21
-138.941
0
LINE
8
BLACK
6
CONTINUOUS
10
143.612
20
-136.6
11
142.112
21
-136.6
0
LINE
8
BLACK
6
CONTINUOUS
10
142.112
20
-136.6
11
142.112
21
-135.1
0
LINE
8
BLACK
6
CONTINUOUS
10
142.112
20
-135.1
11
143.612
21
-135.1
0
LINE
8
BLACK
6
CONTINUOUS
10
143.612
20
-135.1
11
143.612
21
-136.6
0
LINE
8
BLACK
6
CONTINUOUS
10
107.889
20
-135.612
11
106.589
21
-135.612
0
LINE
8
BLACK
6
CONTINUOUS
10
106.589
20
-135.612
11
106.589
21
-134.112
0
LINE
8
BLACK
6
CONTINUOUS
10
106.589
20
-134.112
11
107.889
21
-134.112
0
LINE
8
BLACK
6
CONTINUOUS
10
107.889
20
-134.112
11
107.889
21
-135.612
0
LINE
8
BLACK
6
CONTINUOUS
10
143.612
20
-133.1
11
142.112
21
-133.1
0
LINE
8
BLACK
6
CONTINUOUS
10
142.112
20
-133.1
11
142.112
21
-131.6
0
LINE
8
BLACK
6
CONTINUOUS
10
142.112
20
-131.6
11
143.612
21
-131.6
0
LINE
8
BLACK
6
CONTINUOUS
10
143.612
20
-131.6
11
143.612
21
-133.1
0
LINE
8
BLACK
6
CONTINUOUS
10
107.889
20
-132.911
11
106.589
21
-132.911
0
LINE
8
BLACK
6
CONTINUOUS
10
106.589
20
-132.911
11
106.589
21
-131.411
0
LINE
8
BLACK
6
CONTINUOUS
10
106.589
20
-131.411
11
107.889
21
-131.411
0
LINE
8
BLACK
6
CONTINUOUS
10
107.889
20
-131.411
11
107.889
21
-132.911
0
LINE
8
BLACK
6
CONTINUOUS
10
150.995
20
-130.939
11
149.495
21
-130.939
0
LINE
8
BLACK
6
CONTINUOUS
10
149.495
20
-130.939
11
149.495
21
-129.639
0
LINE
8
BLACK
6
CONTINUOUS
10
149.495
20
-129.639
11
150.995
21
-129.639
0
LINE
8
BLACK
6
CONTINUOUS
10
150.995
20
-129.639
11
150.995
21
-130.939
0
LINE
8
BLACK
6
CONTINUOUS
10
148.295
20
-130.939
11
146.795
21
-130.939
0
LINE
8
BLACK
6
CONTINUOUS
10
146.795
20
-130.939
11
146.795
21
-129.639
0
LINE
8
BLACK
6
CONTINUOUS
10
146.795
20
-129.639
11
148.295
21
-129.639
0
LINE
8
BLACK
6
CONTINUOUS
10
148.295
20
-129.639
11
148.295
21
-130.939
0
LINE
8
BLACK
6
CONTINUOUS
10
143.576
20
-129.739
11
142.276
21
-129.739
0
LINE
8
BLACK
6
CONTINUOUS
10
142.276
20
-129.739
11
142.276
21
-128.239
0
LINE
8
BLACK
6
CONTINUOUS
10
142.276
20
-128.239
11
143.576
21
-128.239
0
LINE
8
BLACK
6
CONTINUOUS
10
143.576
20
-128.239
11
143.576
21
-129.739
0
LINE
8
BLACK
6
CONTINUOUS
10
143.576
20
-127.039
11
142.276
21
-127.039
0
LINE
8
BLACK
6
CONTINUOUS
10
142.276
20
-127.039
11
142.276
21
-125.539
0
LINE
8
BLACK
6
CONTINUOUS
10
142.276
20
-125.539
11
143.576
21
-125.539
0
LINE
8
BLACK
6
CONTINUOUS
10
143.576
20
-125.539
11
143.576
21
-127.039
0
LINE
8
BLACK
6
CONTINUOUS
10
143.676
20
-124.062
11
142.176
21
-124.062
0
LINE
8
BLACK
6
CONTINUOUS
10
142.176
20
-124.062
11
142.176
21
-122.562
0
LINE
8
BLACK
6
CONTINUOUS
10
142.176
20
-122.562
11
143.676
21
-122.562
0
LINE
8
BLACK
6
CONTINUOUS
10
143.676
20
-122.562
11
143.676
21
-124.062
0
LINE
8
BLACK
6
CONTINUOUS
10
131.547
20
-121.992
11
128.397
21
-121.992
0
LINE
8
BLACK
6
CONTINUOUS
10
128.397
20
-121.992
11
128.397
21
-119.992
0
LINE
8
BLACK
6
CONTINUOUS
10
128.397
20
-119.992
11
131.547
21
-119.992
0
LINE
8
BLACK
6
CONTINUOUS
10
131.547
20
-119.992
11
131.547
21
-121.992
0
LINE
8
BLACK
6
CONTINUOUS
10
119.99
20
-121.865
11
116.84
21
-121.865
0
LINE
8
BLACK
6
CONTINUOUS
10
116.84
20
-121.865
11
116.84
21
-119.865
0
LINE
8
BLACK
6
CONTINUOUS
10
116.84
20
-119.865
11
119.99
21
-119.865
0
LINE
8
BLACK
6
CONTINUOUS
10
119.99
20
-119.865
11
119.99
21
-121.865
0
LINE
8
BLACK
6
CONTINUOUS
10
143.676
20
-120.562
11
142.176
21
-120.562
0
LINE
8
BLACK
6
CONTINUOUS
10
142.176
20
-120.562
11
142.176
21
-119.062
0
LINE
8
BLACK
6
CONTINUOUS
10
142.176
20
-119.062
11
143.676
21
-119.062
0
LINE
8
BLACK
6
CONTINUOUS
10
143.676
20
-119.062
11
143.676
21
-120.562
0
LINE
8
BLACK
6
CONTINUOUS
10
123.229
20
-120.534
11
121.729
21
-120.534
0
LINE
8
BLACK
6
CONTINUOUS
10
121.729
20
-120.534
11
121.729
21
-119.034
0
LINE
8
BLACK
6
CONTINUOUS
10
121.729
20
-119.034
11
123.229
21
-119.034
0
LINE
8
BLACK
6
CONTINUOUS
10
123.229
20
-119.034
11
123.229
21
-120.534
0
LINE
8
BLACK
6
CONTINUOUS
10
126.304
20
-120.261
11
125.004
21
-120.261
0
LINE
8
BLACK
6
CONTINUOUS
10
125.004
20
-120.261
11
125.004
21
-118.761
0
LINE
8
BLACK
6
CONTINUOUS
10
125.004
20
-118.761
11
126.304
21
-118.761
0
LINE
8
BLACK
6
CONTINUOUS
10
126.304
20
-118.761
11
126.304
21
-120.261
0
LINE
8
BLACK
6
CONTINUOUS
10
126.304
20
-117.561
11
125.004
21
-117.561
0
LINE
8
BLACK
6
CONTINUOUS
10
125.004
20
-117.561
11
125.004
21
-116.061
0
LINE
8
BLACK
6
CONTINUOUS
10
125.004
20
-116.061
11
126.304
21
-116.061
0
LINE
8
BLACK
6
CONTINUOUS
10
126.304
20
-116.061
11
126.304
21
-117.561
0
LINE
8
BLACK
6
CONTINUOUS
10
131.547
20
-117.092
11
128.397
21
-117.092
0
LINE
8
BLACK
6
CONTINUOUS
10
128.397
20
-117.092
11
128.397
21
-115.092
0
LINE
8
BLACK
6
CONTINUOUS
10
128.397
20
-115.092
11
131.547
21
-115.092
0
LINE
8
BLACK
6
CONTINUOUS
10
131.547
20
-115.092
11
131.547
21
-117.092
0
LINE
8
BLACK
6
CONTINUOUS
10
123.229
20
-117.034
11
121.729
21
-117.034
0
LINE
8
BLACK
6
CONTINUOUS
10
121.729
20
-117.034
11
121.729
21
-115.534
0
LINE
8
BLACK
6
CONTINUOUS
10
121.729
20
-115.534
11
123.229
21
-115.534
0
LINE
8
BLACK
6
CONTINUOUS
10
123.229
20
-115.534
11
123.229
21
-117.034
0
LINE
8
BLACK
6
CONTINUOUS
10
119.99
20
-116.965
11
116.84
21
-116.965
0
LINE
8
BLACK
6
CONTINUOUS
10
116.84
20
-116.965
11
116.84
21
-114.965
0
LINE
8
BLACK
6
CONTINUOUS
10
116.84
20
-114.965
11
119.99
21
-114.965
0
LINE
8
BLACK
6
CONTINUOUS
10
119.99
20
-114.965
11
119.99
21
-116.965
  0
ENDSEC
  0
EOF
