  0
SECTION
  2
HEADER
  9
$ANGBASE
  50
0.0
  9
$ANGDIR
  70
  1
  9
$MEASUREMENT
  70
0
  0
ENDSEC
  0
SECTION
  2
TABLES
  0
TABLE
  2
LTYPE
  70
4
  0
LTYPE
  5
40F
  2
CONTINUOUS
  70
0
  3
Solid line
  72
65
  73
0
  40
0.0
  0
LTYPE
  5
410
  2
DASHDOT
 70
0
  3
Dash Dot ____ _ ____ _
 72
65
 73
4
 40
2.0
 49
1.25
 49
-0.25
 49
0.25
 49
-0.25
  0
LTYPE
  5
411
  2
DASHED
 70
0
  3
Dashed __ __ __ __ __
 72
65
 73
2
 40
0.75
 49
0.5
 49
-0.25
  0
LTYPE
  5
43B
  2
DOTTED
 70
0
  3
Dotted .  .  .  .
 72
65
 73
2
 40
0.2
 49
0.0
 49
-0.2
  0
ENDTAB
  0
TABLE
  2
STYLE
  70
4
  0
STYLE
  2
KICAD
  70
0
  40
0
  41
1
  42
1
  50
0
  71
0
  3
isocp.shx
  0
STYLE
  2
KICADB
  70
0
  40
0
  41
1
  42
1
  50
0
  71
0
  3
isocp.shx
  0
STYLE
  2
KICADI
  70
0
  40
0
  41
1
  42
1
  50
15
  71
0
  3
isocp.shx
  0
STYLE
  2
KICADBI
  70
0
  40
0
  41
1
  42
1
  50
15
  71
0
  3
isocp.shx
  0
ENDTAB
  0
TABLE
  2
LAYER
  70
30
  0
LAYER
  2
BLACK
  70
0
  62
7
  6
CONTINUOUS
  0
LAYER
  2
GRAY1
  70
0
  62
251
  6
CONTINUOUS
  0
LAYER
  2
GRAY2
  70
0
  62
8
  6
CONTINUOUS
  0
LAYER
  2
GRAY3
  70
0
  62
9
  6
CONTINUOUS
  0
LAYER
  2
WHITE
  70
0
  62
7
  6
CONTINUOUS
  0
LAYER
  2
LYELLOW
  70
0
  62
51
  6
CONTINUOUS
  0
LAYER
  2
BLUE1
  70
0
  62
178
  6
CONTINUOUS
  0
LAYER
  2
GREEN1
  70
0
  62
98
  6
CONTINUOUS
  0
LAYER
  2
CYAN1
  70
0
  62
138
  6
CONTINUOUS
  0
LAYER
  2
RED1
  70
0
  62
18
  6
CONTINUOUS
  0
LAYER
  2
MAGENTA1
  70
0
  62
228
  6
CONTINUOUS
  0
LAYER
  2
BROWN1
  70
0
  62
58
  6
CONTINUOUS
  0
LAYER
  2
BLUE2
  70
0
  62
5
  6
CONTINUOUS
  0
LAYER
  2
GREEN2
  70
0
  62
3
  6
CONTINUOUS
  0
LAYER
  2
CYAN2
  70
0
  62
4
  6
CONTINUOUS
  0
LAYER
  2
RED2
  70
0
  62
1
  6
CONTINUOUS
  0
LAYER
  2
MAGENTA2
  70
0
  62
6
  6
CONTINUOUS
  0
LAYER
  2
BROWN2
  70
0
  62
54
  6
CONTINUOUS
  0
LAYER
  2
BLUE3
  70
0
  62
171
  6
CONTINUOUS
  0
LAYER
  2
GREEN3
  70
0
  62
91
  6
CONTINUOUS
  0
LAYER
  2
CYAN3
  70
0
  62
131
  6
CONTINUOUS
  0
LAYER
  2
RED3
  70
0
  62
11
  6
CONTINUOUS
  0
LAYER
  2
MAGENTA3
  70
0
  62
221
  6
CONTINUOUS
  0
LAYER
  2
YELLOW3
  70
0
  62
2
  6
CONTINUOUS
  0
LAYER
  2
BLUE4
  70
0
  62
5
  6
CONTINUOUS
  0
LAYER
  2
GREEN4
  70
0
  62
3
  6
CONTINUOUS
  0
LAYER
  2
CYAN4
  70
0
  62
4
  6
CONTINUOUS
  0
LAYER
  2
RED4
  70
0
  62
1
  6
CONTINUOUS
  0
LAYER
  2
MAGENTA4
  70
0
  62
6
  6
CONTINUOUS
  0
LAYER
  2
YELLOW4
  70
0
  62
2
  6
CONTINUOUS
  0
ENDTAB
  0
ENDSEC
  0
SECTION
  2
ENTITIES
0
LINE
8
BLACK
6
CONTINUOUS
10
153.607
20
-99.925
11
153.613
21
-99.925
0
LINE
8
BLACK
6
CONTINUOUS
10
153.613
20
-99.925
11
153.619
21
-99.9273
0
LINE
8
BLACK
6
CONTINUOUS
10
153.619
20
-99.9273
11
153.626
21
-99.9284
0
LINE
8
BLACK
6
CONTINUOUS
10
153.626
20
-99.9284
11
153.632
21
-99.9318
0
LINE
8
BLACK
6
CONTINUOUS
10
153.632
20
-99.9318
11
153.638
21
-99.934
0
LINE
8
BLACK
6
CONTINUOUS
10
153.638
20
-99.934
11
153.643
21
-99.9383
0
LINE
8
BLACK
6
CONTINUOUS
10
153.643
20
-99.9383
11
153.649
21
-99.9417
0
LINE
8
BLACK
6
CONTINUOUS
10
153.649
20
-99.9417
11
153.653
21
-99.9468
0
LINE
8
BLACK
6
CONTINUOUS
10
153.653
20
-99.9468
11
153.658
21
-99.951
0
LINE
8
BLACK
6
CONTINUOUS
10
153.658
20
-99.951
11
153.662
21
-99.9568
0
LINE
8
BLACK
6
CONTINUOUS
10
153.662
20
-99.9568
11
153.666
21
-99.9619
0
LINE
8
BLACK
6
CONTINUOUS
10
153.666
20
-99.9619
11
153.668
21
-99.9682
0
LINE
8
BLACK
6
CONTINUOUS
10
153.668
20
-99.9682
11
153.672
21
-99.974
0
LINE
8
BLACK
6
CONTINUOUS
10
153.672
20
-99.974
11
153.673
21
-99.9805
0
LINE
8
BLACK
6
CONTINUOUS
10
153.673
20
-99.9805
11
153.675
21
-99.9868
0
LINE
8
BLACK
6
CONTINUOUS
10
153.675
20
-99.9868
11
153.675
21
-99.9934
0
LINE
8
BLACK
6
CONTINUOUS
10
153.675
20
-99.9934
11
153.675
21
-99.9934
0
LINE
8
BLACK
6
CONTINUOUS
10
153.675
20
-99.9934
11
153.675
21
-144.207
0
LINE
8
BLACK
6
CONTINUOUS
10
153.675
20
-144.207
11
153.675
21
-144.207
0
LINE
8
BLACK
6
CONTINUOUS
10
153.675
20
-144.207
11
153.675
21
-144.213
0
LINE
8
BLACK
6
CONTINUOUS
10
153.675
20
-144.213
11
153.673
21
-144.219
0
LINE
8
BLACK
6
CONTINUOUS
10
153.673
20
-144.219
11
153.672
21
-144.226
0
LINE
8
BLACK
6
CONTINUOUS
10
153.672
20
-144.226
11
153.668
21
-144.232
0
LINE
8
BLACK
6
CONTINUOUS
10
153.668
20
-144.232
11
153.666
21
-144.238
0
LINE
8
BLACK
6
CONTINUOUS
10
153.666
20
-144.238
11
153.662
21
-144.243
0
LINE
8
BLACK
6
CONTINUOUS
10
153.662
20
-144.243
11
153.658
21
-144.249
0
LINE
8
BLACK
6
CONTINUOUS
10
153.658
20
-144.249
11
153.653
21
-144.253
0
LINE
8
BLACK
6
CONTINUOUS
10
153.653
20
-144.253
11
153.649
21
-144.258
0
LINE
8
BLACK
6
CONTINUOUS
10
153.649
20
-144.258
11
153.643
21
-144.262
0
LINE
8
BLACK
6
CONTINUOUS
10
153.643
20
-144.262
11
153.638
21
-144.266
0
LINE
8
BLACK
6
CONTINUOUS
10
153.638
20
-144.266
11
153.632
21
-144.268
0
LINE
8
BLACK
6
CONTINUOUS
10
153.632
20
-144.268
11
153.626
21
-144.272
0
LINE
8
BLACK
6
CONTINUOUS
10
153.626
20
-144.272
11
153.619
21
-144.273
0
LINE
8
BLACK
6
CONTINUOUS
10
153.619
20
-144.273
11
153.613
21
-144.275
0
LINE
8
BLACK
6
CONTINUOUS
10
153.613
20
-144.275
11
153.607
21
-144.275
0
LINE
8
BLACK
6
CONTINUOUS
10
153.607
20
-144.275
11
153.607
21
-144.275
0
LINE
8
BLACK
6
CONTINUOUS
10
153.607
20
-144.275
11
141.075
21
-144.275
0
LINE
8
BLACK
6
CONTINUOUS
10
141.075
20
-144.275
11
141.075
21
-150.507
0
LINE
8
BLACK
6
CONTINUOUS
10
141.075
20
-150.507
11
141.075
21
-150.507
0
LINE
8
BLACK
6
CONTINUOUS
10
141.075
20
-150.507
11
141.075
21
-150.513
0
LINE
8
BLACK
6
CONTINUOUS
10
141.075
20
-150.513
11
141.073
21
-150.519
0
LINE
8
BLACK
6
CONTINUOUS
10
141.073
20
-150.519
11
141.072
21
-150.526
0
LINE
8
BLACK
6
CONTINUOUS
10
141.072
20
-150.526
11
141.068
21
-150.532
0
LINE
8
BLACK
6
CONTINUOUS
10
141.068
20
-150.532
11
141.066
21
-150.538
0
LINE
8
BLACK
6
CONTINUOUS
10
141.066
20
-150.538
11
141.062
21
-150.543
0
LINE
8
BLACK
6
CONTINUOUS
10
141.062
20
-150.543
11
141.058
21
-150.549
0
LINE
8
BLACK
6
CONTINUOUS
10
141.058
20
-150.549
11
141.053
21
-150.553
0
LINE
8
BLACK
6
CONTINUOUS
10
141.053
20
-150.553
11
141.049
21
-150.558
0
LINE
8
BLACK
6
CONTINUOUS
10
141.049
20
-150.558
11
141.043
21
-150.562
0
LINE
8
BLACK
6
CONTINUOUS
10
141.043
20
-150.562
11
141.038
21
-150.566
0
LINE
8
BLACK
6
CONTINUOUS
10
141.038
20
-150.566
11
141.032
21
-150.568
0
LINE
8
BLACK
6
CONTINUOUS
10
141.032
20
-150.568
11
141.026
21
-150.572
0
LINE
8
BLACK
6
CONTINUOUS
10
141.026
20
-150.572
11
141.019
21
-150.573
0
LINE
8
BLACK
6
CONTINUOUS
10
141.019
20
-150.573
11
141.013
21
-150.575
0
LINE
8
BLACK
6
CONTINUOUS
10
141.013
20
-150.575
11
141.007
21
-150.575
0
LINE
8
BLACK
6
CONTINUOUS
10
141.007
20
-150.575
11
141.007
21
-150.575
0
LINE
8
BLACK
6
CONTINUOUS
10
141.007
20
-150.575
11
112.593
21
-150.575
0
LINE
8
BLACK
6
CONTINUOUS
10
112.593
20
-150.575
11
112.593
21
-150.575
0
LINE
8
BLACK
6
CONTINUOUS
10
112.593
20
-150.575
11
112.587
21
-150.575
0
LINE
8
BLACK
6
CONTINUOUS
10
112.587
20
-150.575
11
112.581
21
-150.573
0
LINE
8
BLACK
6
CONTINUOUS
10
112.581
20
-150.573
11
112.574
21
-150.572
0
LINE
8
BLACK
6
CONTINUOUS
10
112.574
20
-150.572
11
112.568
21
-150.568
0
LINE
8
BLACK
6
CONTINUOUS
10
112.568
20
-150.568
11
112.562
21
-150.566
0
LINE
8
BLACK
6
CONTINUOUS
10
112.562
20
-150.566
11
112.557
21
-150.562
0
LINE
8
BLACK
6
CONTINUOUS
10
112.557
20
-150.562
11
112.551
21
-150.558
0
LINE
8
BLACK
6
CONTINUOUS
10
112.551
20
-150.558
11
112.547
21
-150.553
0
LINE
8
BLACK
6
CONTINUOUS
10
112.547
20
-150.553
11
112.542
21
-150.549
0
LINE
8
BLACK
6
CONTINUOUS
10
112.542
20
-150.549
11
112.538
21
-150.543
0
LINE
8
BLACK
6
CONTINUOUS
10
112.538
20
-150.543
11
112.534
21
-150.538
0
LINE
8
BLACK
6
CONTINUOUS
10
112.534
20
-150.538
11
112.532
21
-150.532
0
LINE
8
BLACK
6
CONTINUOUS
10
112.532
20
-150.532
11
112.528
21
-150.526
0
LINE
8
BLACK
6
CONTINUOUS
10
112.528
20
-150.526
11
112.527
21
-150.519
0
LINE
8
BLACK
6
CONTINUOUS
10
112.527
20
-150.519
11
112.525
21
-150.513
0
LINE
8
BLACK
6
CONTINUOUS
10
112.525
20
-150.513
11
112.525
21
-150.507
0
LINE
8
BLACK
6
CONTINUOUS
10
112.525
20
-150.507
11
112.525
21
-150.507
0
LINE
8
BLACK
6
CONTINUOUS
10
112.525
20
-150.507
11
112.525
21
-144.275
0
LINE
8
BLACK
6
CONTINUOUS
10
112.525
20
-144.275
11
99.9934
21
-144.275
0
LINE
8
BLACK
6
CONTINUOUS
10
99.9934
20
-144.275
11
99.9934
21
-144.275
0
LINE
8
BLACK
6
CONTINUOUS
10
99.9934
20
-144.275
11
99.9868
21
-144.275
0
LINE
8
BLACK
6
CONTINUOUS
10
99.9868
20
-144.275
11
99.9805
21
-144.273
0
LINE
8
BLACK
6
CONTINUOUS
10
99.9805
20
-144.273
11
99.974
21
-144.272
0
LINE
8
BLACK
6
CONTINUOUS
10
99.974
20
-144.272
11
99.9682
21
-144.268
0
LINE
8
BLACK
6
CONTINUOUS
10
99.9682
20
-144.268
11
99.9619
21
-144.266
0
LINE
8
BLACK
6
CONTINUOUS
10
99.9619
20
-144.266
11
99.9568
21
-144.262
0
LINE
8
BLACK
6
CONTINUOUS
10
99.9568
20
-144.262
11
99.951
21
-144.258
0
LINE
8
BLACK
6
CONTINUOUS
10
99.951
20
-144.258
11
99.9468
21
-144.253
0
LINE
8
BLACK
6
CONTINUOUS
10
99.9468
20
-144.253
11
99.9417
21
-144.249
0
LINE
8
BLACK
6
CONTINUOUS
10
99.9417
20
-144.249
11
99.9383
21
-144.243
0
LINE
8
BLACK
6
CONTINUOUS
10
99.9383
20
-144.243
11
99.934
21
-144.238
0
LINE
8
BLACK
6
CONTINUOUS
10
99.934
20
-144.238
11
99.9318
21
-144.232
0
LINE
8
BLACK
6
CONTINUOUS
10
99.9318
20
-144.232
11
99.9284
21
-144.226
0
LINE
8
BLACK
6
CONTINUOUS
10
99.9284
20
-144.226
11
99.9273
21
-144.219
0
LINE
8
BLACK
6
CONTINUOUS
10
99.9273
20
-144.219
11
99.925
21
-144.213
0
LINE
8
BLACK
6
CONTINUOUS
10
99.925
20
-144.213
11
99.925
21
-144.207
0
LINE
8
BLACK
6
CONTINUOUS
10
99.925
20
-144.207
11
99.925
21
-144.207
0
LINE
8
BLACK
6
CONTINUOUS
10
99.925
20
-144.207
11
99.925
21
-99.9934
0
LINE
8
BLACK
6
CONTINUOUS
10
99.925
20
-99.9934
11
99.925
21
-99.9868
0
LINE
8
BLACK
6
CONTINUOUS
10
99.925
20
-99.9868
11
99.9273
21
-99.9805
0
LINE
8
BLACK
6
CONTINUOUS
10
99.9273
20
-99.9805
11
99.9284
21
-99.974
0
LINE
8
BLACK
6
CONTINUOUS
10
99.9284
20
-99.974
11
99.9318
21
-99.9682
0
LINE
8
BLACK
6
CONTINUOUS
10
99.9318
20
-99.9682
11
99.934
21
-99.9619
0
LINE
8
BLACK
6
CONTINUOUS
10
99.934
20
-99.9619
11
99.9383
21
-99.9568
0
LINE
8
BLACK
6
CONTINUOUS
10
99.9383
20
-99.9568
11
99.9417
21
-99.951
0
LINE
8
BLACK
6
CONTINUOUS
10
99.9417
20
-99.951
11
99.9468
21
-99.9468
0
LINE
8
BLACK
6
CONTINUOUS
10
99.9468
20
-99.9468
11
99.951
21
-99.9417
0
LINE
8
BLACK
6
CONTINUOUS
10
99.951
20
-99.9417
11
99.9568
21
-99.9383
0
LINE
8
BLACK
6
CONTINUOUS
10
99.9568
20
-99.9383
11
99.9619
21
-99.934
0
LINE
8
BLACK
6
CONTINUOUS
10
99.9619
20
-99.934
11
99.9682
21
-99.9318
0
LINE
8
BLACK
6
CONTINUOUS
10
99.9682
20
-99.9318
11
99.974
21
-99.9284
0
LINE
8
BLACK
6
CONTINUOUS
10
99.974
20
-99.9284
11
99.9805
21
-99.9273
0
LINE
8
BLACK
6
CONTINUOUS
10
99.9805
20
-99.9273
11
99.9868
21
-99.925
0
LINE
8
BLACK
6
CONTINUOUS
10
99.9868
20
-99.925
11
99.9934
21
-99.925
0
LINE
8
BLACK
6
CONTINUOUS
10
99.9934
20
-99.925
11
99.9934
21
-99.925
0
LINE
8
BLACK
6
CONTINUOUS
10
99.9934
20
-99.925
11
153.607
21
-99.925
0
LINE
8
BLACK
6
CONTINUOUS
10
153.607
20
-99.925
11
153.607
21
-99.925
0
LINE
8
BLACK
6
CONTINUOUS
10
100.075
20
-100.075
11
100.075
21
-144.125
0
LINE
8
BLACK
6
CONTINUOUS
10
100.075
20
-144.125
11
112.607
21
-144.125
0
LINE
8
BLACK
6
CONTINUOUS
10
112.607
20
-144.125
11
112.607
21
-144.125
0
LINE
8
BLACK
6
CONTINUOUS
10
112.607
20
-144.125
11
112.613
21
-144.125
0
LINE
8
BLACK
6
CONTINUOUS
10
112.613
20
-144.125
11
112.619
21
-144.127
0
LINE
8
BLACK
6
CONTINUOUS
10
112.619
20
-144.127
11
112.626
21
-144.128
0
LINE
8
BLACK
6
CONTINUOUS
10
112.626
20
-144.128
11
112.632
21
-144.132
0
LINE
8
BLACK
6
CONTINUOUS
10
112.632
20
-144.132
11
112.638
21
-144.134
0
LINE
8
BLACK
6
CONTINUOUS
10
112.638
20
-144.134
11
112.643
21
-144.138
0
LINE
8
BLACK
6
CONTINUOUS
10
112.643
20
-144.138
11
112.649
21
-144.142
0
LINE
8
BLACK
6
CONTINUOUS
10
112.649
20
-144.142
11
112.653
21
-144.147
0
LINE
8
BLACK
6
CONTINUOUS
10
112.653
20
-144.147
11
112.658
21
-144.151
0
LINE
8
BLACK
6
CONTINUOUS
10
112.658
20
-144.151
11
112.662
21
-144.157
0
LINE
8
BLACK
6
CONTINUOUS
10
112.662
20
-144.157
11
112.666
21
-144.162
0
LINE
8
BLACK
6
CONTINUOUS
10
112.666
20
-144.162
11
112.668
21
-144.168
0
LINE
8
BLACK
6
CONTINUOUS
10
112.668
20
-144.168
11
112.672
21
-144.174
0
LINE
8
BLACK
6
CONTINUOUS
10
112.672
20
-144.174
11
112.673
21
-144.181
0
LINE
8
BLACK
6
CONTINUOUS
10
112.673
20
-144.181
11
112.675
21
-144.187
0
LINE
8
BLACK
6
CONTINUOUS
10
112.675
20
-144.187
11
112.675
21
-144.193
0
LINE
8
BLACK
6
CONTINUOUS
10
112.675
20
-144.193
11
112.675
21
-144.193
0
LINE
8
BLACK
6
CONTINUOUS
10
112.675
20
-144.193
11
112.675
21
-150.425
0
LINE
8
BLACK
6
CONTINUOUS
10
112.675
20
-150.425
11
140.925
21
-150.425
0
LINE
8
BLACK
6
CONTINUOUS
10
140.925
20
-150.425
11
140.925
21
-144.193
0
LINE
8
BLACK
6
CONTINUOUS
10
140.925
20
-144.193
11
140.925
21
-144.193
0
LINE
8
BLACK
6
CONTINUOUS
10
140.925
20
-144.193
11
140.925
21
-144.187
0
LINE
8
BLACK
6
CONTINUOUS
10
140.925
20
-144.187
11
140.927
21
-144.181
0
LINE
8
BLACK
6
CONTINUOUS
10
140.927
20
-144.181
11
140.928
21
-144.174
0
LINE
8
BLACK
6
CONTINUOUS
10
140.928
20
-144.174
11
140.932
21
-144.168
0
LINE
8
BLACK
6
CONTINUOUS
10
140.932
20
-144.168
11
140.934
21
-144.162
0
LINE
8
BLACK
6
CONTINUOUS
10
140.934
20
-144.162
11
140.938
21
-144.157
0
LINE
8
BLACK
6
CONTINUOUS
10
140.938
20
-144.157
11
140.942
21
-144.151
0
LINE
8
BLACK
6
CONTINUOUS
10
140.942
20
-144.151
11
140.947
21
-144.147
0
LINE
8
BLACK
6
CONTINUOUS
10
140.947
20
-144.147
11
140.951
21
-144.142
0
LINE
8
BLACK
6
CONTINUOUS
10
140.951
20
-144.142
11
140.957
21
-144.138
0
LINE
8
BLACK
6
CONTINUOUS
10
140.957
20
-144.138
11
140.962
21
-144.134
0
LINE
8
BLACK
6
CONTINUOUS
10
140.962
20
-144.134
11
140.968
21
-144.132
0
LINE
8
BLACK
6
CONTINUOUS
10
140.968
20
-144.132
11
140.974
21
-144.128
0
LINE
8
BLACK
6
CONTINUOUS
10
140.974
20
-144.128
11
140.981
21
-144.127
0
LINE
8
BLACK
6
CONTINUOUS
10
140.981
20
-144.127
11
140.987
21
-144.125
0
LINE
8
BLACK
6
CONTINUOUS
10
140.987
20
-144.125
11
140.993
21
-144.125
0
LINE
8
BLACK
6
CONTINUOUS
10
140.993
20
-144.125
11
140.993
21
-144.125
0
LINE
8
BLACK
6
CONTINUOUS
10
140.993
20
-144.125
11
153.525
21
-144.125
0
LINE
8
BLACK
6
CONTINUOUS
10
153.525
20
-144.125
11
153.525
21
-100.075
0
LINE
8
BLACK
6
CONTINUOUS
10
153.525
20
-100.075
11
100.075
21
-100.075
0
LINE
8
BLACK
6
CONTINUOUS
10
149.607
20
-104.925
11
149.613
21
-104.925
0
LINE
8
BLACK
6
CONTINUOUS
10
149.613
20
-104.925
11
149.619
21
-104.927
0
LINE
8
BLACK
6
CONTINUOUS
10
149.619
20
-104.927
11
149.626
21
-104.928
0
LINE
8
BLACK
6
CONTINUOUS
10
149.626
20
-104.928
11
149.632
21
-104.932
0
LINE
8
BLACK
6
CONTINUOUS
10
149.632
20
-104.932
11
149.638
21
-104.934
0
LINE
8
BLACK
6
CONTINUOUS
10
149.638
20
-104.934
11
149.643
21
-104.938
0
LINE
8
BLACK
6
CONTINUOUS
10
149.643
20
-104.938
11
149.649
21
-104.942
0
LINE
8
BLACK
6
CONTINUOUS
10
149.649
20
-104.942
11
149.653
21
-104.947
0
LINE
8
BLACK
6
CONTINUOUS
10
149.653
20
-104.947
11
149.658
21
-104.951
0
LINE
8
BLACK
6
CONTINUOUS
10
149.658
20
-104.951
11
149.662
21
-104.957
0
LINE
8
BLACK
6
CONTINUOUS
10
149.662
20
-104.957
11
149.666
21
-104.962
0
LINE
8
BLACK
6
CONTINUOUS
10
149.666
20
-104.962
11
149.668
21
-104.968
0
LINE
8
BLACK
6
CONTINUOUS
10
149.668
20
-104.968
11
149.672
21
-104.974
0
LINE
8
BLACK
6
CONTINUOUS
10
149.672
20
-104.974
11
149.673
21
-104.981
0
LINE
8
BLACK
6
CONTINUOUS
10
149.673
20
-104.981
11
149.675
21
-104.987
0
LINE
8
BLACK
6
CONTINUOUS
10
149.675
20
-104.987
11
149.675
21
-104.993
0
LINE
8
BLACK
6
CONTINUOUS
10
149.675
20
-104.993
11
149.675
21
-104.993
0
LINE
8
BLACK
6
CONTINUOUS
10
149.675
20
-104.993
11
149.675
21
-117.007
0
LINE
8
BLACK
6
CONTINUOUS
10
149.675
20
-117.007
11
149.675
21
-117.007
0
LINE
8
BLACK
6
CONTINUOUS
10
149.675
20
-117.007
11
149.675
21
-117.013
0
LINE
8
BLACK
6
CONTINUOUS
10
149.675
20
-117.013
11
149.673
21
-117.019
0
LINE
8
BLACK
6
CONTINUOUS
10
149.673
20
-117.019
11
149.672
21
-117.026
0
LINE
8
BLACK
6
CONTINUOUS
10
149.672
20
-117.026
11
149.668
21
-117.032
0
LINE
8
BLACK
6
CONTINUOUS
10
149.668
20
-117.032
11
149.666
21
-117.038
0
LINE
8
BLACK
6
CONTINUOUS
10
149.666
20
-117.038
11
149.662
21
-117.043
0
LINE
8
BLACK
6
CONTINUOUS
10
149.662
20
-117.043
11
149.658
21
-117.049
0
LINE
8
BLACK
6
CONTINUOUS
10
149.658
20
-117.049
11
149.653
21
-117.053
0
LINE
8
BLACK
6
CONTINUOUS
10
149.653
20
-117.053
11
149.649
21
-117.058
0
LINE
8
BLACK
6
CONTINUOUS
10
149.649
20
-117.058
11
149.643
21
-117.062
0
LINE
8
BLACK
6
CONTINUOUS
10
149.643
20
-117.062
11
149.638
21
-117.066
0
LINE
8
BLACK
6
CONTINUOUS
10
149.638
20
-117.066
11
149.632
21
-117.068
0
LINE
8
BLACK
6
CONTINUOUS
10
149.632
20
-117.068
11
149.626
21
-117.072
0
LINE
8
BLACK
6
CONTINUOUS
10
149.626
20
-117.072
11
149.619
21
-117.073
0
LINE
8
BLACK
6
CONTINUOUS
10
149.619
20
-117.073
11
149.613
21
-117.075
0
LINE
8
BLACK
6
CONTINUOUS
10
149.613
20
-117.075
11
149.607
21
-117.075
0
LINE
8
BLACK
6
CONTINUOUS
10
149.607
20
-117.075
11
149.607
21
-117.075
0
LINE
8
BLACK
6
CONTINUOUS
10
149.607
20
-117.075
11
143.593
21
-117.075
0
LINE
8
BLACK
6
CONTINUOUS
10
143.593
20
-117.075
11
143.593
21
-117.075
0
LINE
8
BLACK
6
CONTINUOUS
10
143.593
20
-117.075
11
143.587
21
-117.075
0
LINE
8
BLACK
6
CONTINUOUS
10
143.587
20
-117.075
11
143.581
21
-117.073
0
LINE
8
BLACK
6
CONTINUOUS
10
143.581
20
-117.073
11
143.574
21
-117.072
0
LINE
8
BLACK
6
CONTINUOUS
10
143.574
20
-117.072
11
143.568
21
-117.068
0
LINE
8
BLACK
6
CONTINUOUS
10
143.568
20
-117.068
11
143.562
21
-117.066
0
LINE
8
BLACK
6
CONTINUOUS
10
143.562
20
-117.066
11
143.557
21
-117.062
0
LINE
8
BLACK
6
CONTINUOUS
10
143.557
20
-117.062
11
143.551
21
-117.058
0
LINE
8
BLACK
6
CONTINUOUS
10
143.551
20
-117.058
11
143.547
21
-117.053
0
LINE
8
BLACK
6
CONTINUOUS
10
143.547
20
-117.053
11
143.542
21
-117.049
0
LINE
8
BLACK
6
CONTINUOUS
10
143.542
20
-117.049
11
143.538
21
-117.043
0
LINE
8
BLACK
6
CONTINUOUS
10
143.538
20
-117.043
11
143.534
21
-117.038
0
LINE
8
BLACK
6
CONTINUOUS
10
143.534
20
-117.038
11
143.532
21
-117.032
0
LINE
8
BLACK
6
CONTINUOUS
10
143.532
20
-117.032
11
143.528
21
-117.026
0
LINE
8
BLACK
6
CONTINUOUS
10
143.528
20
-117.026
11
143.527
21
-117.019
0
LINE
8
BLACK
6
CONTINUOUS
10
143.527
20
-117.019
11
143.525
21
-117.013
0
LINE
8
BLACK
6
CONTINUOUS
10
143.525
20
-117.013
11
143.525
21
-117.007
0
LINE
8
BLACK
6
CONTINUOUS
10
143.525
20
-117.007
11
143.525
21
-117.007
0
LINE
8
BLACK
6
CONTINUOUS
10
143.525
20
-117.007
11
143.525
21
-104.993
0
LINE
8
BLACK
6
CONTINUOUS
10
143.525
20
-104.993
11
143.525
21
-104.987
0
LINE
8
BLACK
6
CONTINUOUS
10
143.525
20
-104.987
11
143.527
21
-104.981
0
LINE
8
BLACK
6
CONTINUOUS
10
143.527
20
-104.981
11
143.528
21
-104.974
0
LINE
8
BLACK
6
CONTINUOUS
10
143.528
20
-104.974
11
143.532
21
-104.968
0
LINE
8
BLACK
6
CONTINUOUS
10
143.532
20
-104.968
11
143.534
21
-104.962
0
LINE
8
BLACK
6
CONTINUOUS
10
143.534
20
-104.962
11
143.538
21
-104.957
0
LINE
8
BLACK
6
CONTINUOUS
10
143.538
20
-104.957
11
143.542
21
-104.951
0
LINE
8
BLACK
6
CONTINUOUS
10
143.542
20
-104.951
11
143.547
21
-104.947
0
LINE
8
BLACK
6
CONTINUOUS
10
143.547
20
-104.947
11
143.551
21
-104.942
0
LINE
8
BLACK
6
CONTINUOUS
10
143.551
20
-104.942
11
143.557
21
-104.938
0
LINE
8
BLACK
6
CONTINUOUS
10
143.557
20
-104.938
11
143.562
21
-104.934
0
LINE
8
BLACK
6
CONTINUOUS
10
143.562
20
-104.934
11
143.568
21
-104.932
0
LINE
8
BLACK
6
CONTINUOUS
10
143.568
20
-104.932
11
143.574
21
-104.928
0
LINE
8
BLACK
6
CONTINUOUS
10
143.574
20
-104.928
11
143.581
21
-104.927
0
LINE
8
BLACK
6
CONTINUOUS
10
143.581
20
-104.927
11
143.587
21
-104.925
0
LINE
8
BLACK
6
CONTINUOUS
10
143.587
20
-104.925
11
143.593
21
-104.925
0
LINE
8
BLACK
6
CONTINUOUS
10
143.593
20
-104.925
11
143.593
21
-104.925
0
LINE
8
BLACK
6
CONTINUOUS
10
143.593
20
-104.925
11
149.607
21
-104.925
0
LINE
8
BLACK
6
CONTINUOUS
10
149.607
20
-104.925
11
149.607
21
-104.925
0
LINE
8
BLACK
6
CONTINUOUS
10
143.675
20
-105.075
11
143.675
21
-116.925
0
LINE
8
BLACK
6
CONTINUOUS
10
143.675
20
-116.925
11
149.525
21
-116.925
0
LINE
8
BLACK
6
CONTINUOUS
10
149.525
20
-116.925
11
149.525
21
-105.075
0
LINE
8
BLACK
6
CONTINUOUS
10
149.525
20
-105.075
11
143.675
21
-105.075
  0
ENDSEC
  0
EOF
